# xmcd CD database file generated by MAGIX_Freedb v0.9beta0
# 
# Track frame offsets:
#      150
#      15893
#      34938
#      57200
#      74780
#      85024
#      100466
#      111485
#      125190
#      139456
#      152827
#      169953
#      182836
#      196027
#      206216
#      216187
# 
# Disc length: 3064 seconds
# 
# Revision: 0 
# Processed by: cddbd v1.4PL0 Copyright (c) Steve Scherf et al.
# Submitted via: MAGIX_Freedb v0.9beta0
# 
DISCID=f70bf610
DTITLE=Various Artist - Original Country Feelings CD-1
DYEAR=1900
DGENRE=
TTITLE0=Bellamy Brothers - Sugar Daddy
TTITLE1=Nashville Riders - Whose Bed Have Your Boots Been Under
TTITLE2=John Denver - Sweet Surrender
TTITLE3=John Brack u. Bjoro Häland - Angel Eyes
TTITLE4=Freddy Fender - Crazy Baby
TTITLE5=Curtis Young - Don't Worry
TTITLE6=Johnny Newton - You Ain't Much Fun
TTITLE7=Patsy Cline u. Christal Gayle - I Can't Forget You
TTITLE8=Billy Troy - Birmingham Jail
TTITLE9=Charlie Pride - I'm So Afraid Of Loosing You Again
TTITLE10=Pam Gadd - Frankie And Johnny
TTITLE11=Kenny Rogers - Ruby, Don't Take Your Love To Town
TTITLE12=Tennessee - Tennessee
TTITLE13=Nashville Music Company - San Antonio Rose
TTITLE14=Tex Ritter - Boll Weevil Song
TTITLE15=Patti Page - The Tennessee Waltz
EXTD=Jaba Music
EXTT0=
EXTT1=
EXTT2=
EXTT3=
EXTT4=
EXTT5=
EXTT6=
EXTT7=
EXTT8=
EXTT9=
EXTT10=
EXTT11=
EXTT12=
EXTT13=
EXTT14=
EXTT15=
PLAYORDER=
